<svg viewBox="0 0 1001 294" xml:space="preserve" xmlns="http://www.w3.org/2000/svg">
	<path id="path1"
   d="m132.5 219c17 0 31-13 31-32.5 0-19-14-32-31-32h-18.5c-10.5 0-19.5-9-19.5-19.5 0-11 9-20 19.5-20h18c10.5 0 19-8.5 19-18.5v-1.5c0-10.5-8.5-18.5-18.5-18.5h-36.5c-6.5 0-12 5-12 11.5v119.5c0 6 5.5 11.5 12 11.5h36.5zm46.5-81c10.5 8 24.5 24.5 24.5 51 0 44.5-32 69-71 69h-40.5c-28.5 0-52-23-52-52v-.5-116.5c0-28.5 23.5-52 52-52h42.5c31.5 0 57 25.5 57 57 0 13.5-5.5 24-13 31.5-4 3.5-3.5 9.5.5 12.5z" />
	<path id="path2"
   d="m264 59c0-12.5-10-22.5-22.5-22-12 .5-21.5 11-21.5 23V236.5c0 12 10 22 22 22s22-10 22-22z" />
	<path id="path3"
   d="m440.5 122c0 32.5-26 58.5-58.5 58.5-12 0-22 0-23.5 0-10 0-18-8.5-18-18.5 0-10.5 8-18.5 19-18.5h20.5c9 0 16.5-7.5 16.5-16.5v-34.5a16 16 45 00-16-16h-38.5c-6.5 0-12 5.5-12 12v146.5c0 12.5-10 22.5-22.5 22-12-.5-21.5-11-21.5-23v-144.5c0-29 23.5-52.5 52.5-52.5h47.5c30 0 54.5 24.5 54.5 54.5z"/>
	<path id="path4"
   d="m527.5 130c-4.5-1-6-6.5-3.5-10l23.5-28.5c16-22.5 1.5-54.5-26.5-54.5h-51.5c-10.5 0-19.5 8-20 18.5-.5 11 8 20.5 18.5 20.5h37c5 0 8 6 5 10l-37.5 49c-9.5 12-.5 29.5 14.5 29.5h24.5c10.5 0 19 8.5 19 18.5v13.5c0 13-9 24.5-32.5 24.5-11.5 0-25-2-31-3-8.5-1.5-18 2-21.5 10-5.5 10.5 1 23 12.5 26 15 3.5 24.5 4 42.5 4 52.5 0 72.5-32.5 72.5-65v-7.5c0-26.5-13-48-45.5-55.5z" />
	<path id="path5"
   d="m647.5 36c-37 0-68.5 23.5-68.5 62v30c0 32 22.5 59.5 58 59.5 11.5 0 21.5-1.5 28.5-2.5 4-1 8 2.5 8 6.5v5c0 13-8.5 24.5-32 24.5-12 0-25-2-31-3-9-1.5-18 2-21.5 10-5.5 10.5 1 23 12.5 26 15 3.5 24 4 42.5 4 52.5 0 72.5-32.5 72.5-65v-95c-.5-41-34-62-69-62zm16 111.5c-5.5 1-9.5 2.5-19 2.5-18 0-23.5-12-23.5-24.5v-25c0-14.5 10-26.5 26.5-26.5 16 0 26 12 26 26.5v34.5c0 6-3.5 11.5-10 12.5z" />
	<path id="path6"
   d="m852 188v-128.5c0-12 10-22 22-22s22 10 22 22v131c0 41.5-33 68.5-79 68.5-43.5 0-79-25-79-68.5v-131c0-12 10-22 22-22s22 10 22 22v128.5c0 23 17.5 30.5 35 30.5 22.5 0 35-11.5 35-30.5z" />
	<path id="path7"
   d="m961.5 59c0-12.5-9.5-22-22.5-22-12 .5-21.5 11-21.5 23v176.5c0 12 10 22 22 22s22-10 22-22z" />
</svg>