<?xml version="1.0" encoding="utf-8"?>
<!-- Generator: Adobe Illustrator 21.0.0, SVG Export Plug-In . SVG Version: 6.00 Build 0)  -->
<svg version="1.1" id="Layer_1" xmlns="http://www.w3.org/2000/svg" xmlns:xlink="http://www.w3.org/1999/xlink" x="0px" y="0px"
	 viewBox="0 0 122.4 122.4" style="enable-background:new 0 0 122.4 122.4;" xml:space="preserve">
<path d="M102.1,83.1C99.1,80.1,101,75.2,105.1,75.2H107.3C114.9,75.2,121.3,68.7,121.3,61.1,121.3,53.7,115,47.8,107.6,47.8H105.4C101.3,47.8,98.7,43.4,102.6,39.5L116.3,25.9C121.6,20.5,121.6,11.8,116.3,6.4S102.1,1,96.8,6.4L83.1,20.1C80.1,23.1,74.9,21,74.9,17V14.4C74.9,6.9,68.6,1,61.1,1,53.5,1,47.4,7,47.4,14.5V17C47.4,21.2,42.2,23.1,39.2,20.1L25.6,6.4C20.2,1.1,11.5,1.1,6.1,6.4S0.8,20.5,6.1,25.9L19.7,39.5C22.7,42.5,20.8,47.8,16.8,47.8H14.6C7.1,47.8,1,53.6,1,61.1,1,68.7,6.9,75.2,14.5,75.2H16.8C20.8,75.2,23.2,80.1,20.2,83.1L6.1,97.2C0.8,102.5,0.8,110.8,6.1,116.1,12,122,20.6,121.5,25.9,116.1L39.6,102.5C42.8,99.3,47.4,100.8,47.4,105.6V107.7C47.4,115.2,52,121.4,61.1,121.4,70,121.4,74.9,115.1,74.9,107.7V105.6C74.9,100.9,79.6,99.3,82.7,102.4L96.3,116C101.7,121.4,110.4,121.8,116.1,116.1,121.5,110.8,121.4,102.3,116,96.9L102.1,83.1ZM83,56.3H91C93.7,56.3,95.9,58.4,95.8,61.1,95.8,63.8,93.6,65.9,91,65.9H83C79.3,65.9,77.4,70.4,80.1,73.1L94.2,87.2C96.1,89.1,96.4,92.6,94.5,94.5,92.3,96.5,89.3,96,87.2,93.9L73.1,79.8C70.5,77.1,66,79,66,82.7V90.2C66,93.2,64.3,95.6,61.1,95.6,58.2,95.6,56.4,93.1,56.4,90.2V82.9C56.4,79.2,51.8,77.4,49.1,80L34.6,94.3C33.1,95.8,29.9,96.5,27.8,94.3,25.9,92.4,26,89.3,27.9,87.5L42.3,73.1C45,70.4,43.1,65.9,39.4,65.9L31.3,65.9C28.6,65.9,26.4,63.8,26.5,61.1,26.6,58.5,28.7,56.3,31.4,56.3L39.4,56.3C43.1,56.3,45,51.7,42.4,49.1L28.2,34.9C26.2,32.9,25.9,29.5,27.9,27.7,30,25.7,33.1,26.1,35.2,28.2L49.1,42.1C51.7,44.8,56.3,42.9,56.3,39.2V31.6C56.3,28.8,57.6,26.2,61.1,26.2,64.6,26.2,66,28.4,66,31.6V39.4C66,43.1,70.5,45,73.1,42.3L87.2,28.2C89.3,26.1,92.3,25.7,94.5,27.6,96.4,29.6,96.2,33,94.2,35L80.1,49.1C77.4,51.7,79.3,56.3,83,56.3Zz"/>
</svg>
